<svg version="1.2" xmlns="http://www.w3.org/2000/svg" viewBox="0 0 542 184" width="542" height="184">
	<title>Intelekti Publishing_logo-geo</title>
	<style>
		tspan { white-space:pre } 
		.s0 { fill: #f48245 } 
		.t1 { font-size: 13px;fill: #000000;font-weight: 400;font-family: "LiberationSans", "Liberation Sans" } 
	</style>
	<path id="Path_1" class="s0" d="m7 61.7l34.4-11.3 11.3-34.4 33.3 33.2-11.4 34.4-34.4 11.4zm40.1-10l23.9 23.9 8.2-25-23.9-23.9zm-29.2 12.5l23.8 23.9 25-8.2-23.8-23.9z"/>
	<path id="Path_2" class="s0" d="m112.4 16l11.4 34.4 34.4 11.3-33 33.3-34.4-11.4-11.3-34.4zm-2.6 10.8l-23.9 23.9 8.3 25 23.8-23.9zm13.7 61.4l23.8-23.9-25-8.2-23.8 23.9z"/>
	<path id="Path_3" class="s0" d="m158.2 121.4l-34.4 11.4-11.4 34.4-32.9-33.3 11.3-34.4 34.4-11.3zm-39.8 9.9l-23.8-23.9-8.6 25 23.9 23.9zm29.3-12.5l-24.2-23.9-25 8.3 23.9 23.9z"/>
	<path id="Path_4" class="s0" d="m52.7 166.9l-11.3-34.4-34.4-11.7 33.2-33.2 34.4 11.4 11.4 34.3zm-10-40l23.9-23.9-25-8.2-23.9 23.8zm12.5 29.3l23.9-23.9-8.2-25.2-23.9 23.8z"/>
	<path id="Path_5" class="s0" d="m221.2 84.9c1.4-2.2 1.4-5.4 0-7.6-1.7-2-4.2-3.2-6.8-3.2v-7.6c10 0 10-10.3 0-10.3-5.4 0.3-10.8-1.9-14.5-5.9l7.7-4.9c1.7 2 4.2 3.2 6.8 3.2 5.4-0.3 10.8 2 14.5 5.9 3.4 4 3.4 9.7 0 13.7-1.1 0-2.3 0.8-2.3 2 0 1.1 0.9 2.2 2 2.2h0.3c3.7 5.2 3.7 12 0 17.1-8 7.9-21 7.9-29 0-2-2.6-2.8-5.4-2.8-8.5 0-1.5 0.3-2.6 0.5-3.7h9.7c-0.3 1.1-0.6 2.5-0.6 3.7 0 1.4 0.3 2.5 1.2 3.7 3.4 3.7 9.1 3.9 12.8 0.8 0 0 0.2-0.3 0.5-0.6z"/>
	<path id="Path_6" class="s0" d="m262.7 84.9c0.6-1.1 1.1-2.5 1.1-3.7v-12.5c0-11-14.4-8.8-22.1-18.4l7.7-4.9c3.9 6.3 23.8 4.9 24.1 23.3v12.3c0 3.1-0.8 6.2-2.8 8.5-8 7.9-21.1 7.9-29 0-2-2.6-2.9-5.4-2.9-8.5 0-1.5 0.3-2.6 0.6-3.7h9.7c-0.9 1.1-0.9 2.5-0.9 3.7 0 1.4 0.3 2.5 1.2 3.7 3.4 3.7 9 3.9 12.7 0.8 0-0.3 0.3-0.3 0.6-0.6z"/>
	<path id="Path_7" class="s0" d="m292 56.2c-0.6 1.2-1.2 2.6-1.2 3.7v21.1c0 1.4 0.3 2.5 1.2 3.7 1.7 1.9 4.2 3.1 6.8 3.1h7.7v7.7h-7.7c-5.4 0.2-10.8-2-14.5-6-2-2.6-2.8-5.4-2.8-8.5v-21.1c0-3.1 0.8-6.2 2.8-8.5 8-7.9 21-7.9 29 0 2 2.6 2.8 5.4 2.8 8.5v6.9h-9.6v-6.9c0-1.4-0.3-2.5-1.2-3.7-3.1-3.6-8.8-3.9-12.5-0.8q-0.4 0.4-0.8 0.8z"/>
	<path id="Path_8" class="s0" d="m334.9 56.2c-0.6 1.2-1.2 2.6-1.2 3.7v35.6h-9.6v-35.6c0-3.1 0.8-6.2 2.8-8.5 8-7.9 21-7.9 29 0 2 2.6 2.8 5.4 2.8 8.5v35.6h-9.6v-35.6c0-1.4-0.3-2.5-1.2-3.7-3.4-3.6-9-3.9-12.7-0.8 0.2 0.3 0 0.6-0.3 0.8z"/>
	<path id="Path_9" class="s0" d="m421 77c-0.6 1.1-1.2 2.5-1.2 3.7v15h-9.6v-35.8c0-3.1 0.8-6.2 2.8-8.5 3.7-4 9.1-6.2 14.5-6h7.7v7.7h-7.7c-2.6-0.3-5.1 0.9-6.8 3.1-0.6 1.2-1.2 2.6-1.2 3.7v7.4c7.7-3.1 16.5-1.1 22.2 4.6 2 2.5 2.8 5.4 2.8 8.5v14.8h-9.3v-14.8c0-1.4-0.3-2.6-1.2-3.7-3.4-3.7-9.1-4-12.8-0.8 0 0.5-0.2 0.8-0.2 1.1z"/>
	<path id="Path_10" class="s0" d="m389.1 42h-8.8v4c-3.9 0.6-7.4 2.6-9.9 5.7-2 2.6-2.9 5.4-2.9 8.5v21c0 3.2 0.9 6.3 2.9 8.6 7.9 7.9 21 7.9 29 0 2-2.6 2.8-5.4 2.8-8.6v-21.3c0-3.1-0.8-6.2-2.8-8.5-2.6-3.1-6.3-4.8-10-5.7zm-11.1 42.9c-0.5-1.1-1.1-2.5-1.1-3.7v-21.3c0-1.4 0.3-2.5 1.1-3.7 0.6-0.8 1.5-1.7 2.3-1.9v6.8h8.8v-6.8c0.9 0.5 1.7 1.1 2.3 1.9 0.6 1.2 1.1 2.6 1.1 3.7v21.1c0 1.4-0.2 2.5-1.1 3.7-3.4 3.6-9.1 3.9-12.8 0.8-0.3-0.3-0.6-0.3-0.6-0.6z"/>
	<path id="Path_11" class="s0" d="m518.4 45.4v42.4h23.6v7.7h-32.7v-50.1z"/>
	<path id="Path_12" class="s0" d="m475.8 84.9c0.6-1.1 1.1-2.5 1.1-3.7v-12.5c0-11-14.5-8.8-22.1-18.4l7.6-4.9c4 6.3 23.9 4.9 24.2 23.3v12.3c0 3.1-0.9 6.2-2.8 8.5-8 7.9-21.1 7.9-29 0-2-2.6-2.9-5.4-2.9-8.5 0-1.5 0.3-2.6 0.6-3.7h9.7c-0.3 1.1-0.6 2.5-0.6 3.7 0 1.4 0.3 2.5 1.1 3.7 3.4 3.7 9.1 3.9 12.8 0.8 0-0.3 0.3-0.3 0.3-0.6z"/>
	<text id="გამომცემლობა" style="transform: matrix(2.841,0,0,2.841,195.192,139.024)" >
		<tspan x="0" y="0" class="t1">გამომცემლობა
</tspan>
	</text>
</svg>