<?xml version="1.0" encoding="utf-8"?>
<!-- Generator: Adobe Illustrator 25.2.3, SVG Export Plug-In . SVG Version: 6.00 Build 0)  -->
<svg version="1.1" id="Group_352" xmlns="http://www.w3.org/2000/svg" xmlns:xlink="http://www.w3.org/1999/xlink" x="0px" y="0px"
	 viewBox="0 0 188.3 53.2" style="enable-background:new 0 0 188.3 53.2;" xml:space="preserve">
<style type="text/css">
	.st0{fill:#F48245;}
	.st1{fill:#313B45;}
	.st2{font-family:'MarkGEO-Regular';}
	.st3{font-size:14.9532px;}
</style>
<path id="Path_1" class="st0" d="M3.8,17l8.4,8.4l8.8-2.9l-8.4-8.4L3.8,17z M14.1,12.6l8.4,8.4l2.9-8.8L17,3.8L14.1,12.6z M0,16.1
	l12.1-4l4-12.1l11.7,11.7l-4,12.1l-12.1,4L0,16.1z"/>
<path id="Path_2" class="st0" d="M36.2,3.8l-8.4,8.4l2.9,8.8l8.4-8.4L36.2,3.8z M37.1,0l4,12.1l12.1,4L41.6,27.8l-12.1-4l-4-12.1
	L37.1,0z M41,25.4l8.4-8.4l-8.8-2.9l-8.4,8.4L41,25.4z"/>
<path id="Path_3" class="st0" d="M49.5,36.2L41,27.8l-8.8,2.9l8.4,8.4L49.5,36.2z M39.2,40.6l-8.4-8.4l-3,8.8l8.4,8.4L39.2,40.6z
	 M53.2,37.1l-12.1,4l-4,12.1L25.5,41.5l4-12.1l12.1-4L53.2,37.1z"/>
<path id="Path_4" class="st0" d="M17,49.3l8.4-8.4L22.5,32l-8.4,8.4L17,49.3z M12.6,39l8.4-8.4l-8.8-2.9l-8.4,8.4L12.6,39z
	 M16.1,53.1l-4-12.1L0,36.9l11.7-11.7l12.1,4l4,12.1L16.1,53.1z"/>
<g id="Group_33" transform="translate(66.899 9.165)">
	<path id="Path_5" class="st0" d="M8.5,15.1c0.5-0.8,0.5-1.9,0-2.7c-0.6-0.7-1.5-1.1-2.4-1.1V8.6c3.5,0,3.5-3.6,0-3.6
		C4.2,5.1,2.3,4.3,1,2.9l2.7-1.7c0.6,0.7,1.5,1.1,2.4,1.1C8,2.2,9.9,3,11.2,4.4c1.2,1.4,1.2,3.4,0,4.8c-0.4,0-0.8,0.3-0.8,0.7
		s0.3,0.8,0.7,0.8h0.1c1.3,1.8,1.3,4.2,0,6c-2.8,2.8-7.4,2.8-10.2,0l0,0c-0.7-0.9-1-1.9-1-3c0-0.5,0.1-0.9,0.2-1.3h3.4
		c-0.1,0.4-0.2,0.9-0.2,1.3c0,0.5,0.1,0.9,0.4,1.3C5,16.3,7,16.4,8.3,15.3C8.3,15.3,8.4,15.2,8.5,15.1"/>
	<path id="Path_6" class="st0" d="M23.1,15.1c0.2-0.4,0.4-0.9,0.4-1.3V9.4c0-3.9-5.1-3.1-7.8-6.5l2.7-1.7c1.4,2.2,8.4,1.7,8.5,8.2
		v4.3c0,1.1-0.3,2.2-1,3c-2.8,2.8-7.4,2.8-10.2,0l0,0c-0.7-0.9-1-1.9-1-3c0-0.5,0.1-0.9,0.2-1.3h3.4C18,12.8,18,13.3,18,13.7
		c0,0.5,0.1,0.9,0.4,1.3c1.2,1.3,3.2,1.4,4.5,0.3C22.9,15.2,23,15.2,23.1,15.1"/>
	<path id="Path_7" class="st0" d="M33.4,5C33.2,5.4,33,5.9,33,6.3v7.4c0,0.5,0.1,0.9,0.4,1.3c0.6,0.7,1.5,1.1,2.4,1.1h2.7v2.7h-2.7
		c-1.9,0.1-3.8-0.7-5.1-2.1c-0.7-0.9-1-1.9-1-3V6.3c0-1.1,0.3-2.2,1-3c2.8-2.8,7.4-2.8,10.2,0l0,0c0.7,0.9,1,1.9,1,3v2.4h-3.4V6.3
		c0-0.5-0.1-0.9-0.4-1.3C37,3.7,35,3.6,33.7,4.7C33.6,4.8,33.5,4.9,33.4,5"/>
	<path id="Path_8" class="st0" d="M48.5,5c-0.2,0.4-0.4,0.9-0.4,1.3v12.5h-3.4V6.3c0-1.1,0.3-2.2,1-3c2.8-2.8,7.4-2.8,10.2,0l0,0
		c0.7,0.9,1,1.9,1,3v12.5h-3.4V6.3c0-0.5-0.1-0.9-0.4-1.3c-1.2-1.3-3.2-1.4-4.5-0.3C48.7,4.8,48.6,4.9,48.5,5"/>
	<path id="Path_9" class="st0" d="M78.8,12.3c-0.2,0.4-0.4,0.9-0.4,1.3v5.3H75V6.3c0-1.1,0.3-2.2,1-3c1.3-1.4,3.2-2.2,5.1-2.1h2.7
		v2.7h-2.7c-0.9-0.1-1.8,0.3-2.4,1.1c-0.2,0.4-0.4,0.9-0.4,1.3v2.6c2.7-1.1,5.8-0.4,7.8,1.6c0.7,0.9,1,1.9,1,3v5.2h-3.3v-5.2
		c0-0.5-0.1-0.9-0.4-1.3c-1.2-1.3-3.2-1.4-4.5-0.3C78.9,12.1,78.8,12.2,78.8,12.3"/>
	<path id="Path_10" class="st0" d="M67.6,0h-3.1v1.4c-1.4,0.2-2.6,0.9-3.5,2c-0.7,0.9-1,1.9-1,3v7.4c0,1.1,0.3,2.2,1,3
		c2.8,2.8,7.4,2.8,10.2,0l0,0c0.7-0.9,1-1.9,1-3V6.3c0-1.1-0.3-2.2-1-3c-0.9-1.1-2.2-1.7-3.5-2L67.6,0z M63.7,15.1
		c-0.2-0.4-0.4-0.9-0.4-1.3V6.3c0-0.5,0.1-0.9,0.4-1.3c0.2-0.3,0.5-0.6,0.8-0.7v2.4h3.1V4.3c0.3,0.2,0.6,0.4,0.8,0.7
		c0.2,0.4,0.4,0.9,0.4,1.3v7.4c0,0.5-0.1,0.9-0.4,1.3c-1.2,1.3-3.2,1.4-4.5,0.3C63.8,15.2,63.7,15.2,63.7,15.1"/>
	<path id="Path_11" class="st0" d="M113.1,1.2v14.9h8.3v2.7h-11.5V1.2H113.1z"/>
	<path id="Path_12" class="st0" d="M98.1,15.1c0.2-0.4,0.4-0.9,0.4-1.3V9.4c0-3.9-5.1-3.1-7.8-6.5l2.7-1.7c1.4,2.2,8.4,1.7,8.5,8.2
		v4.3c0,1.1-0.3,2.2-1,3c-2.8,2.8-7.4,2.8-10.2,0l0,0c-0.7-0.9-1-1.9-1-3c0-0.5,0.1-0.9,0.2-1.3h3.4c-0.1,0.4-0.2,0.9-0.2,1.3
		c0,0.5,0.1,0.9,0.4,1.3c1.2,1.3,3.2,1.4,4.5,0.3C98,15.2,98.1,15.2,98.1,15.1"/>
</g>
<text transform="matrix(1 0 0 1 66.2363 43.2996)" class="st1 st2 st3">გამომცემლობა</text>
</svg>
