<svg version="1.2" xmlns="http://www.w3.org/2000/svg" viewBox="0 0 542 184" width="542" height="184">
	<title>Intelekti Publishing_logo-geo</title>
	<style>
		.s0 { fill: #ac4543 } 
		.s1 { fill: #7c8696 } 
		.s2 { fill: #c1866a } 
		.s3 { fill: #636463 } 
	</style>
	<path fill-rule="evenodd" class="s0" d="m38.4 40.3c17.5 15.4 28.7 33.9 30 55.4 12.3-25.9 34.9-34.8 54.1-37.2-2-6.1-7.1-12.6-14-18.2z"/>
	<path fill-rule="evenodd" class="s1" d="m67.7 130.9h60.1c6.5-21.6 18.8-46.8 34.5-63.6-55.1-6-86.5 15.3-94.6 63.6z"/>
	<path fill-rule="evenodd" class="s2" d="m4.4 66.1h40.5c13.9 17.1 15.4 37.8 4.7 62.6q-4-8.9-8.8-17.3-4.9-8.4-10.6-16.3-5.7-7.9-12.2-15.2-6.4-7.2-13.6-13.8z"/>
	<path class="s3" d="m216.7 57.5v-3.2h-7.3v3.2c0 7.1 4.6 8 4.6 14.5 0 3.9-1.9 6.1-5.2 6.1-3.3 0-5.4-2.3-5.4-6.9v-29.9h-7.4v30.1c0 7.9 4.7 12.5 12.8 12.5 7.7 0 12.9-4.8 12.9-11.9 0-7.6-5-10-5-14.5zm315.2 0v-3.2h-7.2v3.2c0 6.9 4.6 8.2 4.6 14.5 0 3.9-1.9 6.1-5.2 6.1-3.7 0-5.5-2.3-5.5-6.9v-29.9h-7.3v30.1c0 7.9 4.6 12.5 12.7 12.5 7.8 0 13-4.8 13-11.9 0-7.5-5.1-10-5.1-14.5zm-203.4-16.4h-7.5c-0.1 6.6 2.6 12.1 5.1 17.1 2.1 4.5 4.2 8.7 4.2 13.4 0 3-0.9 6.5-5.3 6.5-4.5 0-5.6-3.6-5.5-6.6-0.1-2 0.4-4 1.2-5.8l-6.3-2.1q-0.5 0.9-1 1.9-0.4 1-0.7 2-0.3 1.1-0.5 2.1-0.1 1.1-0.1 2.2c0 7.4 5 12.2 12.9 12.2 7.9 0 13.1-5 13.1-12.5 0-5.9-2.7-11.2-5.1-16.3-2.3-4.9-4.5-8.7-4.5-14.1zm59.1 0h-7.5c-0.1 6.6 2.6 12.1 5.1 17.1 2.1 4.5 4.2 8.7 4.2 13.4 0 3-0.9 6.5-5.3 6.5-4.4 0-5.6-3.6-5.5-6.6 0-2 0.4-4 1.3-5.8l-6.4-2.1q-0.5 0.9-0.9 1.9-0.5 1-0.8 2-0.3 1.1-0.4 2.1-0.2 1.1-0.2 2.2c0 7.4 5.1 12.2 12.9 12.2 7.9 0 13.1-5 13.1-12.5 0-5.9-2.6-11.2-5.1-16.3-2.3-4.9-4.4-8.7-4.5-14.1zm-20.9 30.8c0 7.3-4.9 12-12.6 12-7.6 0-12.4-4.4-12.4-11 0-1.3 0-3.8 0.2-5.9h7.2v5.6c0 2.6 0.9 5.5 5 5.5 4.1 0 4.9-3.5 4.9-6.3v-6.8c-0.1-4-2.1-6.1-5.6-6.1h-3.8l0.9-5.8h2.4q1 0.2 1.9-0.2 1-0.3 1.7-1 0.7-0.7 1-1.6 0.3-1 0.2-1.9-0.1-1-0.2-2-0.1-0.9-0.4-1.8-0.3-1-0.7-1.8-0.4-0.9-0.9-1.7h7c1.6 2 2.6 4.5 2.6 7.2q0.1 1.2-0.3 2.5-0.4 1.2-1.2 2.3-0.7 1-1.8 1.8-1.1 0.7-2.3 1 1.5 0.3 2.9 1.1 1.4 0.8 2.4 2.1 1 1.3 1.5 2.8 0.5 1.5 0.4 3.1c0 0 0 6.9 0 6.9zm105.7-7.7v18.9h-7.5v-18.6c0-6-2.4-6.7-4.2-6.7-2.3 0-3.5 1.6-3.5 4.5v10.8h-7.1v-10.8c0-2.9-1.3-4.5-3.5-4.5-2.9 0-4.3 2.1-4.3 6.7v18.6h-7.4v-20.7c0-10.1 3-18.3 12.6-20.2 6-1.2 14.2 0.6 19.2-0.9l0.8 5.1c-3.3 2.1-13.1 0.5-17.8 1.1q-1.2 0-2.4 0.4-1.2 0.4-2.1 1.2-1 0.8-1.7 1.8-0.6 1.1-0.9 2.3c1.3-0.8 2.8-1.3 4.2-1.2q1.2-0.1 2.3 0.3 1.1 0.3 2.1 1 0.9 0.7 1.6 1.7 0.7 0.9 1 2c1.1-3.3 3.9-5 8.1-5 6.7 0 10.5 4.4 10.5 12.2zm32.1-8.4v27.3h-7.4v-26.5c0-8-2.1-10.3-5.5-10.3-3.3 0-5.4 2.3-5.4 10.3v26.5h-7.4v-27.3c0-11 4.1-15.3 12.8-15.3 8.8 0 12.9 4.3 12.9 15.3zm-195.5-2.7c0 5.5-1.7 10.9-4.9 15.5l-6.3-3q0.8-1.3 1.5-2.8 0.7-1.5 1.1-3.1 0.4-1.6 0.6-3.2 0.2-1.6 0.2-3.3c0-6.1-1.9-7-3.8-7-2.8 0-3.4 2.5-3.4 4.6v8h-7.1v-8c0-2.1-0.6-4.6-3.3-4.6-2.3 0-3.6 1.7-3.6 4.6v8h-7.1v-8c0-4.1-1.8-4.6-3.4-4.6q-3.8 0-3.8 6.3c0 7.7 1.4 24.4 28.6 24.4v6.3q-1.5 0-3 0-1.5-0.1-3-0.2-1.5-0.2-2.9-0.4-1.5-0.3-3-0.6c-3.3-0.9-6.7-1-10.1-0.3-4.2 0.9-5.2 1.2-5.2 1.2l-2.1-5.4q2.3-1.1 4.8-1.7-2.7-2-4.9-4.5-2.2-2.6-3.7-5.6-1.5-3-2.3-6.3-0.8-3.3-0.8-6.6c0-7.8 3.8-12.3 10.3-12.3q6.4 0 8.1 5 0.3-1.2 0.9-2.1 0.7-1 1.7-1.7 1-0.7 2.1-1 1.1-0.3 2.3-0.2 1.2-0.1 2.4 0.2 1.1 0.3 2.1 0.9 1 0.7 1.6 1.7 0.7 1 1 2.1c1-3.1 3.7-4.9 7.7-4.9 6.8 0 10.7 4.6 10.7 12.6zm-56.5-3.3v22.5c0 7.1-5 11.6-12.7 11.6-7.7 0-12.6-4.5-12.6-11.1 0-2.2 0.2-5.8 0.2-5.8h7.1v5.5c0 2.6 0.9 5.7 5.2 5.7 3.4 0 5.2-2.1 5.2-6.4v-21.8c0-3.3-1.5-3.7-2.6-3.7-1.8 0-2.8 1.2-2.8 3.4v9.2h-6.7v-9.6c0-2.3-1-2.7-2-2.7-1.3 0-4.2 0.9-5.5 1q-0.3 0-0.7-0.1-0.4 0-0.7-0.2-0.4-0.1-0.7-0.4-0.3-0.2-0.5-0.5l1.5-5.1q0.4 0 0.9 0c0.7 0 5.5-0.8 6.3-0.8q0.9 0 1.7 0.2 0.8 0.3 1.6 0.8 0.7 0.6 1.2 1.3 0.5 0.7 0.7 1.6 0.5-1 1.2-1.8 0.7-0.8 1.7-1.3 0.9-0.5 2-0.8 1.1-0.2 2.1-0.1c5.4 0.1 8.9 3.6 8.9 9.4zm176 0v22.5c0 7.1-4.9 11.6-12.6 11.6-7.8 0-12.7-4.5-12.7-11.1 0-2.2 0.2-5.8 0.2-5.8h7.2v5.5c0 2.6 0.9 5.7 5.1 5.7q5.2 0 5.2-6.4v-21.8c0-3.3-1.4-3.7-2.5-3.7q-2.8 0-2.8 3.4v9.2h-6.7v-9.6c0-2.3-1-2.7-2.1-2.7-1.4 0-4.2 0.9-5.5 1q-0.4 0-0.7-0.1-0.4 0-0.8-0.2-0.3-0.1-0.6-0.4-0.3-0.2-0.6-0.5l1.5-5.1q0.5 0 0.9 0c0.8 0 5.6-0.8 6.3-0.8q0.9 0 1.8 0.2 0.8 0.3 1.5 0.8 0.7 0.6 1.2 1.3 0.5 0.7 0.7 1.6 0.5-1 1.3-1.8 0.7-0.8 1.7-1.3 0.9-0.5 2-0.8 1-0.2 2.1-0.1c5.5 0.1 8.9 3.6 8.9 9.4zm-172.5 51.8q-1.1-0.1-2.1 0.1-1 0.1-1.9 0.5-1 0.4-1.8 1-0.8 0.6-1.5 1.4-0.4 0.5-0.7 1.1-0.3 0.5-0.4 1.1-0.2 0.6-0.2 1.3-0.1 0.6 0 1.2l4.6-0.4c0-0.4 0-3.3 4-3.3q1-0.1 1.9 0.2 0.9 0.2 1.5 0.9 0.7 0.7 1 1.6 0.3 0.9 0.2 1.8v1.8q-0.5-0.4-1.1-0.8-0.6-0.3-1.2-0.5-0.7-0.2-1.3-0.3-0.7-0.2-1.4-0.2c-5.3 0-9.2 4.1-9.2 10.1 0 6.4 3.8 10.6 9.6 10.6 5.8 0 9.4-4 9.4-10.4v-10.3c-0.1-5.3-3.7-8.5-9.4-8.5zm4.6 18.6c0 2-0.5 6.4-4.7 6.4-4.1 0-4.5-4-4.5-6.3 0-4 1.7-6.1 4.5-6.1q0.7 0 1.3 0.1 0.7 0.1 1.3 0.4 0.6 0.3 1.1 0.7 0.5 0.4 1 0.9c0 0 0 4 0 3.9zm56.5-18.6q-1-0.1-2 0.1-1.1 0.1-2 0.5-1 0.4-1.8 1-0.8 0.6-1.5 1.4-0.4 0.5-0.7 1.1-0.2 0.5-0.4 1.1-0.2 0.6-0.2 1.3-0.1 0.6 0 1.2l4.6-0.4c0-0.4 0-3.3 4-3.3q1-0.1 1.9 0.1 0.9 0.3 1.6 1 0.7 0.7 1 1.6 0.3 0.9 0.1 1.8v1.8q-0.5-0.4-1.1-0.8-0.6-0.3-1.2-0.5-0.6-0.2-1.3-0.4-0.7-0.1-1.4-0.1c-5.3 0-9.1 4.1-9.1 10.1 0 6.4 3.7 10.6 9.5 10.6 5.9 0 9.4-4 9.4-10.4v-10.3c0-5.3-3.6-8.5-9.4-8.5zm4.6 18.6c0 2-0.5 6.4-4.6 6.4-4.2 0-4.6-4-4.6-6.3 0-4 1.7-6.1 4.5-6.1q0.7 0 1.3 0.1 0.7 0.1 1.3 0.4 0.6 0.3 1.1 0.7 0.5 0.4 1 0.9v4zm74-18.7q-1-0.1-2 0.1-1 0.1-2 0.5-1 0.4-1.8 1-0.8 0.6-1.5 1.4-0.4 0.5-0.7 1.1-0.3 0.5-0.4 1.2-0.2 0.6-0.2 1.2-0.1 0.6 0 1.2l4.6-0.4c0-0.4 0-3.3 4-3.3q1-0.1 1.9 0.2 0.9 0.3 1.6 0.9 0.6 0.7 0.9 1.6 0.3 0.9 0.2 1.8v1.8q-0.5-0.4-1.1-0.7-0.6-0.4-1.2-0.6-0.7-0.2-1.3-0.3-0.7-0.1-1.4-0.1c-5.3 0-9.2 4-9.2 10.1 0 6.3 3.8 10.5 9.6 10.5 5.9 0 9.4-3.9 9.4-10.4v-10.3c0-5.3-3.6-8.5-9.4-8.5zm4.6 18.7c0 1.9-0.4 6.3-4.6 6.3-4.2 0-4.5-4-4.5-6.3 0-4 1.7-6.1 4.5-6.1q0.6 0 1.3 0.1 0.6 0.2 1.2 0.4 0.6 0.3 1.1 0.7 0.6 0.4 1 0.9v4zm-107.5-18.7q-1 0-1.9 0.2-0.9 0.3-1.7 0.7-0.8 0.5-1.4 1.2-0.6 0.7-1 1.6-0.4-0.9-1.1-1.6-0.6-0.7-1.4-1.2-0.8-0.4-1.7-0.7-0.9-0.2-1.8-0.2c-5.8 0-8.4 3.8-8.4 11.8v16.9h4.9v-16.9c0-5.6 0.9-7.6 3.7-7.6 2.2 0 3.4 1.7 3.4 4.7v11.2h4.9v-11.2c0-3 1.2-4.7 3.4-4.7 2.7 0 3.7 2 3.7 7.6v16.9h4.9v-16.9c0-8-2.7-11.8-8.5-11.8zm184.5 0q-0.9 0-1.8 0.2-0.9 0.3-1.7 0.8-0.8 0.4-1.4 1.1-0.6 0.7-1 1.6-0.4-0.9-1.1-1.6-0.6-0.7-1.4-1.1-0.8-0.5-1.7-0.8-0.9-0.2-1.8-0.2c-5.9 0-8.4 3.8-8.4 11.8v16.9h4.9v-16.9c0-5.6 0.9-7.6 3.7-7.6 2.2 0 3.4 1.7 3.4 4.7v11.2h4.9v-11.2c0-3 1.2-4.7 3.4-4.7 2.7 0 3.7 2 3.7 7.6v16.9h5v-16.9c-0.1-8-2.9-11.8-8.7-11.8zm-126.1 13.7q0.7-0.2 1.2-0.6 0.6-0.4 1-1 0.4-0.5 0.6-1.1 0.3-0.7 0.3-1.4c0.4-4.3-4.7-6.2-4.8-8.6v-0.4h-4.7v0.5c0 4.4 5 4.6 4.5 8.6-0.1 1.3-1.2 2-3 2h-3.3v4.2h2.6c3.1 0 4.6 1.4 4.6 4.4 0 3.4-2.9 4.9-5.8 4.9-2.9 0-6.1-1-6.1-9.4v-15.2h-5v15.3c0 8.9 3.7 13.4 11.1 13.4 6.1 0 10.8-3.8 10.8-8.9q0.1-1.1-0.1-2.1-0.3-1-0.8-1.9-0.5-0.9-1.3-1.6-0.8-0.7-1.8-1.1zm19.2-13.7c-5.1 0-8.8 3.2-8.8 7.6v2.5h4.9v-2.4c0-2.1 1.4-3.5 3.9-3.5 2.5 0 4 1.4 4 4.4v11.1c0 3.6-1.4 5.3-4.3 5.3-3.4 0-4.1-2.5-4.1-4.6v-3.4h-5v3.8c0 5 3.6 8.4 9.1 8.4 1.2 0.1 2.5 0 3.7-0.4 1.1-0.4 2.2-1.1 3.1-2 0.9-0.9 1.6-2 2-3.1 0.4-1.2 0.5-2.5 0.4-3.7v-11.5q0.1-1.3-0.3-2.6-0.4-1.2-1.1-2.3-0.8-1.1-1.8-1.9-1.1-0.8-2.3-1.3-0.4-0.1-0.8-0.2-0.5-0.1-0.9-0.2-0.4 0-0.9 0-0.4 0-0.8 0zm80.2 9.9q0 1.3-0.2 2.6-0.2 1.3-0.6 2.5-0.4 1.2-1 2.4-0.7 1.1-1.5 2.2l-4.1-2q0.6-0.8 1.1-1.7 0.4-0.9 0.7-1.9 0.3-1 0.4-1.9 0.1-1 0.1-2c0-5.2-1.6-5.9-3.3-5.9-1.8 0-3 1.4-3 4.2v5.8h-4.8v-5.8c0-1.9-0.5-4.2-3-4.2-2.5 0-3.2 2.2-3.2 4.2v5.8h-4.6v-5.8c0-3.7-1.6-4.2-3.2-4.2-2.1 0-3.2 1.8-3.2 5.3 0 3.6 0 7 2.6 9.7 3.1 3.2 9.2 4.8 18.9 4.8h0.6v4.7h-0.6c-23.8 0-26.6-10.9-26.6-19.2 0-7 4.1-9.5 7.8-9.5q1-0.1 1.9 0.1 0.9 0.2 1.7 0.6 0.8 0.5 1.4 1.1 0.6 0.7 1 1.5 0.4-0.8 0.9-1.4 0.6-0.6 1.3-1.1 0.7-0.4 1.6-0.6 0.8-0.2 1.6-0.2 0.9-0.1 1.7 0.1 0.9 0.2 1.6 0.6 0.8 0.5 1.3 1.1 0.6 0.7 0.9 1.5 0.4-0.8 1-1.5 0.6-0.6 1.4-1.1 0.7-0.4 1.6-0.6 0.9-0.2 1.7-0.1c5.1 0 8.1 3.7 8.1 9.9zm54.2-1.1c0.9-3.2-3.2-6.2-3.2-7.8v-0.5h-4.6v0.6c0 3.5 3.8 4.5 3.3 7.5-5.3 0.7-8.4 4.3-8.4 10.1 0 6.6 3.7 10.6 9.9 10.6 6.3 0 10-3.9 10-10.6 0.1-5.5-2.5-8.8-7-9.9zm-2.9 16.3c-3.3 0-4.9-2.1-4.9-6.3 0-4.3 1.5-6.2 4.9-6.2 3.4 0 5 1.7 5 6.2 0 4.4-1.6 6.3-5 6.3zm-270.1-24.5h-5q0 1.6 0.3 3.1 0.3 1.6 0.9 3.1 0.6 1.5 1.5 2.8 0.8 1.4 2 2.5 0.8 0.8 1.4 1.7 0.7 0.9 1.1 1.9 0.5 1 0.8 2 0.3 1.1 0.4 2.2c0 2.4-0.8 5.2-4.6 5.2-3.7 0-4.4-2.8-4.4-5.2v-2.9h-4.9v3.3c0 5.3 3.8 8.9 9.5 8.9 1.2 0 2.4-0.1 3.6-0.6 1.2-0.4 2.3-1.1 3.1-2 0.9-0.8 1.6-1.9 2.1-3 0.5-1.2 0.7-2.4 0.6-3.7q0-1.5-0.3-2.9-0.4-1.5-0.9-2.8-0.6-1.4-1.5-2.6-0.8-1.2-1.9-2.2c-1.9-2.4-4.1-4.6-3.8-8.8zm296.6 0h-4.9q0 1.6 0.3 3.1 0.3 1.6 0.9 3.1 0.6 1.5 1.5 2.8 0.8 1.4 2 2.5c2.1 2.1 3.4 4.8 3.6 7.8 0 2.4-0.8 5.2-4.4 5.2-3.7 0-4.5-2.8-4.5-5.2v-2.9h-4.9v3.3c0 5.3 3.8 8.9 9.4 8.9 1.3 0 2.5-0.1 3.7-0.5 1.2-0.5 2.3-1.1 3.2-2 0.9-0.9 1.6-2 2-3.1 0.5-1.2 0.7-2.4 0.6-3.7q0-1.5-0.3-2.9-0.3-1.5-0.9-2.8-0.6-1.4-1.5-2.6-0.8-1.2-1.9-2.2c-2-2.4-4.1-4.6-3.9-8.8zm-317.7 9.4q0.6-0.3 1.1-0.8 0.4-0.4 0.8-1 0.4-0.5 0.6-1.2 0.2-0.6 0.2-1.2c0-3.4-3-5.7-7.6-5.7-4.5 0-7.9 2.3-7.9 5.9 0 0.7 0.1 1.4 0.4 2.1l4.4-1.2q0-0.1 0-0.2 0-0.2 0-0.3 0-0.1 0-0.2 0-0.1 0-0.2c0-1.4 1.1-2.2 3.2-2.2 1.6 0 2.6 0.9 2.6 2.2q0 0.6-0.2 1.1-0.2 0.6-0.7 1-0.4 0.4-1 0.7-0.5 0.2-1.2 0.2c-1.2 0-2.5 0.2-3.7 0.7-1.2 0.5-2.3 1.2-3.2 2.2-0.9 0.9-1.6 2-2 3.2-0.5 1.2-0.7 2.5-0.6 3.8-0.1 1.4 0.1 2.7 0.6 4 0.4 1.3 1.2 2.4 2.1 3.4 1 1 2.1 1.7 3.4 2.2 1.2 0.5 2.6 0.7 3.9 0.7 1.7-0.1 3.3-0.5 4.8-1.3 1.5-0.8 2.7-2 3.6-3.4 0.9-1.4 1.5-3.1 1.6-4.7 0.2-1.7-0.1-3.4-0.8-4.9q-0.3-0.8-0.8-1.5-0.4-0.7-1-1.3-0.6-0.7-1.2-1.2-0.7-0.5-1.4-0.9zm-4.7 15.1c-3.2 0-5-2.1-5-6 0-2.8 0.8-6.3 4.8-6.3 4.6 0 5.1 4.4 5.1 6.3 0 2.8-0.9 6-5 6z"/>
</svg>