<svg xmlns="http://www.w3.org/2000/svg" width="253" height="44" fill="none" viewBox="0 0 253 44">
  <path fill="#AC4543" fill-rule="evenodd" d="M16.13.5c8.33 7.31 13.65 16.07 14.25 26.3 5.87-12.3 16.6-16.52 25.72-17.67-.95-2.9-3.4-5.99-6.67-8.63h-33.3Z" clip-rule="evenodd"/>
  <path fill="#7C8696" fill-rule="evenodd" d="M30.08 43.5h28.51C61.71 33.24 67.52 21.27 75 13.3c-26.17-2.84-41.08 7.3-44.92 30.2Z" clip-rule="evenodd"/>
  <path fill="#C1866A" fill-rule="evenodd" d="M0 12.74h19.23c6.62 8.1 7.32 17.96 2.23 29.73A91.12 91.12 0 0 0 0 12.74Z" clip-rule="evenodd"/>
  <path fill="#636463" d="M100.85 8.65V7.12h-3.47v1.54c0 3.39 2.18 3.78 2.18 6.87 0 1.85-.9 2.92-2.47 2.92-1.57 0-2.58-1.1-2.58-3.28V.94H91v14.33c0 3.76 2.22 5.92 6.06 5.92 3.69 0 6.16-2.27 6.16-5.66 0-3.62-2.38-4.76-2.38-6.88ZM250.58 8.65V7.12h-3.45v1.54c0 3.27 2.18 3.9 2.18 6.87 0 1.85-.9 2.92-2.47 2.92-1.72 0-2.6-1.1-2.6-3.28V.94h-3.48v14.33c0 3.76 2.2 5.92 6.06 5.92 3.67 0 6.15-2.27 6.15-5.66-.01-3.57-2.39-4.76-2.39-6.88ZM153.92.84h-3.55c-.06 3.14 1.23 5.77 2.43 8.17 1 2.13 2 4.13 2 6.36 0 1.4-.44 3.07-2.54 3.08-2.1 0-2.64-1.72-2.6-3.16-.03-.95.18-1.89.6-2.73l-3-1a7.72 7.72 0 0 0-1.13 3.88c0 3.51 2.41 5.78 6.15 5.78 3.73 0 6.2-2.33 6.2-5.92 0-2.8-1.25-5.3-2.42-7.74-1.08-2.33-2.1-4.14-2.14-6.72ZM182 .84h-3.55c-.06 3.14 1.23 5.77 2.43 8.17 1 2.13 2 4.13 2 6.36 0 1.4-.44 3.07-2.54 3.08-2.1 0-2.63-1.72-2.58-3.16-.04-.95.16-1.88.58-2.73l-3-1a7.72 7.72 0 0 0-1.13 3.88c0 3.51 2.42 5.78 6.15 5.78 3.73 0 6.2-2.33 6.2-5.92 0-2.8-1.24-5.3-2.41-7.74-1.09-2.33-2.1-4.14-2.15-6.72ZM172.11 15.5c0 3.46-2.37 5.7-6 5.7-3.64 0-5.88-2.1-5.88-5.23 0-.6 0-1.8.1-2.82h3.4v2.69c0 1.2.41 2.6 2.36 2.6 1.96 0 2.36-1.65 2.36-3v-3.22c-.08-1.9-1-2.92-2.69-2.92h-1.8l.43-2.72h1.15a2 2 0 0 0 2.25-2.27 6.9 6.9 0 0 0-1-3.47h3.32c.76.98 1.2 2.18 1.24 3.42a3.63 3.63 0 0 1-2.7 3.64 4.22 4.22 0 0 1 3.46 4.32v3.29ZM222.32 11.83v8.98h-3.57v-8.83c0-2.86-1.16-3.18-2-3.18-1.1 0-1.69.74-1.69 2.14v5.12h-3.34v-5.12c0-1.36-.61-2.14-1.7-2.14-1.37 0-2 1-2 3.16v8.85h-3.54V11c0-4.8 1.42-8.72 6-9.62 2.83-.57 6.74.27 9.1-.43l.38 2.42c-1.55 1-6.2.24-8.43.52a3.44 3.44 0 0 0-3.38 2.72c.6-.4 1.3-.6 2-.57a3.27 3.27 0 0 1 3.3 2.4c.55-1.57 1.88-2.4 3.86-2.4 3.17 0 5.01 2.11 5.01 5.78ZM237.54 7.86v12.95h-3.5V8.22c0-3.78-1-4.9-2.6-4.9s-2.6 1.12-2.6 4.9v12.59h-3.52V7.86c0-5.23 1.96-7.29 6.12-7.29 4.17 0 6.1 2.06 6.1 7.29ZM144.68 6.56c-.02 2.64-.83 5.2-2.33 7.36l-3-1.4a10.56 10.56 0 0 0 1.6-5.9c0-2.92-.86-3.33-1.79-3.33-1.34 0-1.62 1.19-1.62 2.17v3.82h-3.35V5.46c0-1-.28-2.17-1.6-2.17-1.07 0-1.67.78-1.67 2.17v3.82h-3.37V5.46c0-1.92-.87-2.17-1.63-2.17-1.2 0-1.8 1-1.8 3.01 0 3.66.65 11.56 13.56 11.56v3a21.5 21.5 0 0 1-5.62-.59c-1.58-.39-3.22-.43-4.82-.12-2 .43-2.48.56-2.48.56l-1-2.54c.73-.37 1.5-.63 2.3-.8A13.73 13.73 0 0 1 120.5 6.4c0-3.69 1.8-5.83 4.91-5.83 2 0 3.27.78 3.81 2.37a3.22 3.22 0 0 1 3.36-2.37 3.16 3.16 0 0 1 3.37 2.35c.47-1.51 1.75-2.35 3.66-2.35 3.2 0 5.06 2.17 5.06 6ZM117.83 4.97v10.7c0 3.36-2.34 5.53-6.01 5.53s-6-2.14-6-5.31c0-1 .1-2.72.1-2.72h3.39v2.6c0 1.22.43 2.69 2.45 2.69 1.63 0 2.46-1 2.46-3.01V5.09c0-1.58-.7-1.77-1.21-1.77-.88 0-1.34.55-1.34 1.63V9.3h-3.17V4.75c0-1.1-.49-1.27-.95-1.28-.64 0-2 .44-2.6.46a1.57 1.57 0 0 1-1.26-.55l.71-2.44c.14.02.28.02.42 0 .35 0 2.63-.37 3-.37a2.49 2.49 0 0 1 2.47 1.84 3.41 3.41 0 0 1 3.35-1.9c2.57.06 4.19 1.74 4.19 4.46ZM201.46 4.97v10.7c0 3.36-2.34 5.53-6.01 5.53-3.68 0-6-2.14-6-5.31 0-1 .1-2.72.1-2.72h3.4v2.6c0 1.22.42 2.69 2.44 2.69 1.64 0 2.47-1 2.47-3.01V5.09c0-1.58-.7-1.77-1.21-1.77-.9 0-1.34.55-1.34 1.63V9.3h-3.18V4.75c0-1.1-.48-1.27-1-1.28-.64 0-2 .44-2.59.46a1.6 1.6 0 0 1-1.27-.55l.7-2.44c.15.02.29.02.43 0 .35 0 2.63-.37 3-.37a2.48 2.48 0 0 1 2.47 1.84 3.43 3.43 0 0 1 3.36-1.9c2.62.06 4.23 1.74 4.23 4.46ZM119.5 29.59a4.07 4.07 0 0 0-3.46 1.43 2.86 2.86 0 0 0-.6 2.24l2.16-.2c0-.2 0-1.56 1.92-1.56a1.9 1.9 0 0 1 2.18 2.13v.85a3.75 3.75 0 0 0-2.37-.83c-2.52 0-4.37 1.94-4.37 4.8 0 3.01 1.79 5.02 4.56 5.02 2.77 0 4.45-1.89 4.45-4.95v-4.9c-.02-2.5-1.73-4.03-4.47-4.03Zm2.18 8.86c0 .91-.22 3.01-2.2 3.01-1.98 0-2.15-1.9-2.15-3 0-1.88.82-2.9 2.13-2.9a2.92 2.92 0 0 1 2.22 1v1.9ZM148.53 29.59a4.08 4.08 0 0 0-3.45 1.43 2.9 2.9 0 0 0-.61 2.24l2.16-.2c0-.2 0-1.56 1.92-1.56a1.89 1.89 0 0 1 2.19 2.13v.85a3.7 3.7 0 0 0-2.37-.83c-2.53 0-4.36 1.94-4.36 4.8 0 3.01 1.78 5.02 4.54 5.02 2.77 0 4.46-1.89 4.46-4.95v-4.9c-.02-2.5-1.72-4.03-4.48-4.03Zm2.19 8.86c0 .91-.22 3.01-2.2 3.01-2 0-2.15-1.9-2.15-3 0-1.88.81-2.9 2.12-2.9a2.89 2.89 0 0 1 2.22 1v1.9ZM185.9 29.59a4.06 4.06 0 0 0-3.48 1.43 2.86 2.86 0 0 0-.6 2.24l2.16-.2c0-.2 0-1.56 1.92-1.56a1.89 1.89 0 0 1 2.17 2.13v.85a3.7 3.7 0 0 0-2.36-.83c-2.53 0-4.37 1.94-4.37 4.8 0 3.01 1.78 5.02 4.56 5.02 2.77 0 4.45-1.89 4.45-4.95v-4.9c0-2.5-1.71-4.03-4.45-4.03Zm2.17 8.86c0 .91-.21 3.01-2.2 3.01-1.98 0-2.14-1.9-2.14-3 0-1.88.81-2.9 2.13-2.9a2.88 2.88 0 0 1 2.2 1v1.9ZM136.99 29.59a3 3 0 0 0-2.84 1.72 3.01 3.01 0 0 0-2.85-1.72c-2.76 0-4 1.78-4 5.6v8.03h2.34v-8.03c0-2.67.46-3.61 1.75-3.61 1.06 0 1.64.79 1.64 2.22v5.3h2.3v-5.3c0-1.43.59-2.22 1.65-2.22 1.29 0 1.75.94 1.75 3.61v8.03h2.34v-8.03c0-3.82-1.32-5.6-4.08-5.6ZM224.66 29.59a3 3 0 0 0-2.83 1.72 3.02 3.02 0 0 0-2.84-1.72c-2.77 0-4 1.78-4 5.6v8.03h2.34v-8.03c0-2.67.45-3.61 1.76-3.61 1.06 0 1.64.79 1.64 2.22v5.3h2.3v-5.3c0-1.43.57-2.22 1.63-2.22 1.3 0 1.77.94 1.77 3.61v8.03h2.34v-8.03c-.05-3.82-1.34-5.6-4.1-5.6ZM164.77 36.1a2.28 2.28 0 0 0 1.46-1.95c.2-2.08-2.23-2.94-2.26-4.08v-.23h-2.25v.26c0 2.08 2.38 2.16 2.15 4.09-.08.6-.58.93-1.45.93h-1.55v2h1.23c1.46 0 2.17.69 2.17 2.11 0 1.59-1.38 2.3-2.74 2.3-1.36 0-2.91-.46-2.91-4.46v-7.19h-2.35v7.25c0 4.22 1.76 6.37 5.25 6.37 2.92 0 5.13-1.83 5.13-4.25a3.08 3.08 0 0 0-1.88-3.16ZM173.87 29.59c-2.42 0-4.18 1.51-4.18 3.61v1.2H172v-1.17c0-1 .7-1.67 1.87-1.67 1.17 0 1.91.7 1.91 2.12v5.26c0 1.69-.67 2.52-2.06 2.52-1.6 0-1.94-1.2-1.94-2.19v-1.6h-2.36v1.78c0 2.37 1.72 4.01 4.3 4.01a4 4 0 0 0 4.39-4.39v-5.45a3.93 3.93 0 0 0-2.62-3.83 3.88 3.88 0 0 0-1.63-.2ZM212 34.27a7.35 7.35 0 0 1-1.57 4.6l-1.94-.93a6.04 6.04 0 0 0 1.07-3.58c0-2.46-.76-2.8-1.58-2.8-.82 0-1.43.66-1.43 2v2.76h-2.26v-2.76c0-.9-.25-2-1.43-2s-1.5 1.07-1.5 2v2.76h-2.22v-2.76c0-1.74-.75-2-1.49-2-1 0-1.54.86-1.54 2.55 0 1.68 0 3.29 1.23 4.58 1.46 1.54 4.4 2.28 9.01 2.28h.26v2.24h-.26c-11.33 0-12.64-5.19-12.64-9.1 0-3.34 1.92-4.52 3.71-4.52a2.8 2.8 0 0 1 2.84 1.57 2.6 2.6 0 0 1 2.57-1.57 2.56 2.56 0 0 1 2.62 1.55 2.7 2.7 0 0 1 2.7-1.55c2.4 0 3.85 1.75 3.85 4.68ZM237.72 33.75c.42-1.5-1.5-2.94-1.5-3.68v-.23h-2.2v.26c0 1.68 1.8 2.14 1.57 3.58-2.52.33-4 2.01-4 4.78 0 3.14 1.76 5.02 4.73 5.02 2.96 0 4.73-1.85 4.73-5.02.05-2.6-1.18-4.18-3.33-4.7Zm-1.35 7.74c-1.6 0-2.37-1-2.37-3 0-2.02.75-2.93 2.37-2.93 1.6 0 2.36.81 2.36 2.92 0 2.1-.77 3.01-2.36 3.01ZM108.03 29.84h-2.35a7.72 7.72 0 0 0 2.21 5.48 5.72 5.72 0 0 1 1.75 3.7c0 1.13-.37 2.47-2.14 2.47-1.76 0-2.13-1.33-2.13-2.45v-1.37h-2.3v1.55c0 2.51 1.81 4.2 4.48 4.2a4.21 4.21 0 0 0 4.49-4.39 7.19 7.19 0 0 0-2.17-5.01c-.93-1.1-1.95-2.17-1.84-4.18ZM248.94 29.84h-2.32a7.69 7.69 0 0 0 2.21 5.48c1.01.98 1.63 2.3 1.73 3.7 0 1.13-.37 2.47-2.12 2.47s-2.13-1.33-2.13-2.45v-1.37H244v1.55c0 2.51 1.79 4.2 4.47 4.2a4.2 4.2 0 0 0 4.52-4.39 7.18 7.18 0 0 0-2.18-5.01c-.96-1.1-1.97-2.17-1.88-4.18ZM98.02 34.32a2.49 2.49 0 0 0 1.3-2.01c0-1.6-1.46-2.68-3.6-2.68s-3.77 1.08-3.77 2.77c-.01.34.05.69.2 1l2.08-.55a2.8 2.8 0 0 1 0-.45c0-.65.5-1 1.5-1 .77 0 1.27.39 1.27 1a1.46 1.46 0 0 1-1.47 1.45 4.4 4.4 0 0 0-4.52 4.72 4.52 4.52 0 0 0 4.74 4.86 4.85 4.85 0 0 0 4.36-6.8 4.86 4.86 0 0 0-2.09-2.31Zm-2.24 7.17c-1.5 0-2.37-1-2.37-2.83 0-1.35.4-3 2.31-3 2.18 0 2.42 2.07 2.42 3-.03 1.3-.44 2.83-2.39 2.83h.03Z"/>
</svg>
