<?xml version="1.0" encoding="utf-8"?>
<!-- Generator: Adobe Illustrator 27.5.0, SVG Export Plug-In . SVG Version: 6.00 Build 0)  -->
<svg version="1.1" xmlns="http://www.w3.org/2000/svg" xmlns:xlink="http://www.w3.org/1999/xlink" x="0px" y="0px"
	 viewBox="0 0 500 500" style="enable-background:new 0 0 500 500;" xml:space="preserve">
<g id="BACKGROUND">
	<rect style="fill:#F9B050;" width="500" height="500"/>
</g>
<g id="OBJECTS">
	<g>
		<g>
			<path style="fill:#029573;" d="M129.986,294.428c-0.06,0.392-0.418,0.673-0.817,0.634c-0.167-0.017-0.316-0.086-0.432-0.191
				c-0.204-0.099-0.78-0.328-1.385-0.568c-15.063-5.982-28.05-14.144-38.601-24.259c-20.253-19.418-30.212-44.423-29.6-74.318
				c0.01-0.416,0.352-0.745,0.768-0.737c0.416,0.009,0.745,0.352,0.737,0.768c-0.603,29.457,9.201,54.086,29.137,73.201
				c10.41,9.98,23.234,18.037,38.115,23.947c1.902,0.755,2.147,0.853,2.084,1.483C129.99,294.401,129.988,294.415,129.986,294.428z
				 M128.493,294.245c0,0,0,0.001,0,0.001C128.493,294.245,128.493,294.245,128.493,294.245z M128.493,294.242c0,0,0,0.001,0,0.001
				C128.493,294.243,128.493,294.243,128.493,294.242z M128.494,294.239c0,0.001,0,0.001,0,0.002
				C128.493,294.241,128.494,294.24,128.494,294.239z"/>
			<path style="fill:#029573;" d="M60.239,207.524c0,0-16.821-13.622,1.544-33.097C73.567,194.027,60.239,207.524,60.239,207.524z"
				/>
			<path style="fill:#029573;" d="M63.202,225.307c0,0-20.769,6.097-26.353-20.082C59.673,206.669,63.202,225.307,63.202,225.307z"
				/>
			<path style="fill:#029573;" d="M63.09,224.289c0,0-7.368-20.353,18.416-27.543C81.474,219.615,63.09,224.289,63.09,224.289z"/>
			<path style="fill:#029573;" d="M72.437,248.422c0,0-19.539,9.315-29.205-15.647C65.995,230.58,72.437,248.422,72.437,248.422z"/>
			<path style="fill:#029573;" d="M72.165,247.435c0,0-10.504-18.926,13.813-30.116C89.575,239.904,72.165,247.435,72.165,247.435z"
				/>
			<path style="fill:#029573;" d="M86.165,266.256c0,0-17.494,12.747-31.583-10.013C76.554,249.902,86.165,266.256,86.165,266.256z"
				/>
			<path style="fill:#029573;" d="M85.716,265.335c0,0-13.803-16.673,8.043-32.142C101.446,254.733,85.716,265.335,85.716,265.335z"
				/>
		</g>
		<g>
			<path style="fill:#029573;" d="M372.949,335.028c-0.129-0.621,0.104-0.743,1.917-1.694c14.179-7.438,26.088-16.795,35.393-27.812
				c17.822-21.1,24.989-46.622,21.3-75.853c-0.052-0.412,0.24-0.789,0.652-0.841s0.787,0.24,0.841,0.652
				c3.743,29.667-3.539,55.577-21.643,77.013c-9.432,11.167-21.491,20.645-35.844,28.174c-0.577,0.303-1.126,0.59-1.318,0.71
				c-0.104,0.116-0.245,0.201-0.409,0.235c-0.393,0.081-0.778-0.161-0.879-0.544C372.954,335.055,372.951,335.042,372.949,335.028z
				 M374.423,334.73c0,0,0-0.001,0-0.001C374.423,334.73,374.423,334.73,374.423,334.73z M374.423,334.728c0,0,0-0.001,0-0.001
				C374.423,334.728,374.423,334.728,374.423,334.728z M374.422,334.726c0-0.001,0-0.001-0.001-0.002
				C374.422,334.725,374.422,334.725,374.422,334.726z"/>
			<path style="fill:#029573;" d="M433.206,241.329c0,0,15.3-15.311-5.006-32.752C418.536,229.304,433.206,241.329,433.206,241.329z
				"/>
			<path style="fill:#029573;" d="M432.125,259.324c0,0,21.294,3.885,24.102-22.735C433.68,240.419,432.125,259.324,432.125,259.324
				z"/>
			<path style="fill:#029573;" d="M432.129,258.3c0,0,5.193-21.013-21.203-25.46C413.356,255.58,432.129,258.3,432.129,258.3z"/>
			<path style="fill:#029573;" d="M425.365,283.281c0,0,20.408,7.214,27.403-18.624C429.9,264.862,425.365,283.281,425.365,283.281z
				"/>
			<path style="fill:#029573;" d="M425.532,282.271c0,0,8.461-19.923-16.895-28.501
				C407.428,276.607,425.532,282.271,425.532,282.271z"/>
			<path style="fill:#029573;" d="M413.582,302.456c0,0,18.734,10.842,30.359-13.27
				C421.425,285.184,413.582,302.456,413.582,302.456z"/>
			<path style="fill:#029573;" d="M413.932,301.493c0,0,11.979-18.029-11.369-31.121
				C397.178,292.599,413.932,301.493,413.932,301.493z"/>
		</g>
	</g>
	<rect y="403.152" style="fill:#DA564C;" width="500" height="96.848"/>
	<ellipse style="opacity:0.2;fill:#233766;" cx="250" cy="435.2" rx="183.617" ry="12.127"/>
	<g>
		<g>
			<path style="fill:#46846B;" d="M397.519,233.51c-0.6,23.03-19.92,41.16-42.95,41.16h-244.25v-5.52c0-0.57,0.05-1.13,0.16-1.68
				c0.78-4.11,4.39-7.22,8.74-7.22h235.59c7.88,0,15.01-3.19,20.18-8.36c5.28-5.27,8.5-12.6,8.36-20.69
				c-0.29-15.67-13.52-28.02-29.19-28.02h-234.94c-3.86,0-7.14-2.45-8.37-5.87c-0.35-0.95-0.53-1.96-0.53-3.02v-4.18h244.93
				c11.68,0,22.25,4.73,29.9,12.38C393.049,210.39,397.829,221.39,397.519,233.51z"/>
			<path style="opacity:0.2;fill:#233766;" d="M391.089,233.32c-0.5,19.1-16.53,34.15-35.64,34.15h-244.97
				c0.78-4.11,4.39-7.22,8.74-7.22h235.59c7.88,0,15.01-3.19,20.18-8.36c5.28-5.27,8.5-12.6,8.36-20.69
				c-0.29-15.67-13.52-28.02-29.19-28.02h-234.94c-3.86,0-7.14-2.45-8.37-5.87h245.17c9.69,0,18.46,3.93,24.81,10.28
				C387.379,214.14,391.349,223.26,391.089,233.32z"/>
			<path style="fill:#FFD299;" d="M383.349,231.721c0,4.365-0.975,8.493-2.733,12.189c-1.406,2.982-3.311,5.669-5.624,7.983
				c-5.17,5.17-12.302,8.357-20.183,8.357H125.163v-57.069h229.646C370.57,203.181,383.349,215.96,383.349,231.721z"/>
		</g>
		<path style="fill:#FFFFFF;" d="M328.169,214.59H125.16v-2.514h203.009c0.612,0,1.108,0.496,1.108,1.108v0.297
			C329.277,214.094,328.781,214.59,328.169,214.59z"/>
		<path style="fill:#FFFFFF;" d="M290.161,236.923h-165v-2.514h165c0.612,0,1.108,0.496,1.108,1.108v0.297
			C291.269,236.427,290.773,236.923,290.161,236.923z"/>
		<path style="fill:#FFFFFF;" d="M310.9,248.089H125.16v-2.514H310.9c0.612,0,1.108,0.496,1.108,1.108v0.297
			C312.008,247.593,311.512,248.089,310.9,248.089z"/>
		<path style="fill:#FFFFFF;" d="M349.901,225.756H125.16v-2.514h224.741c0.612,0,1.109,0.496,1.109,1.108v0.297
			C351.01,225.26,350.514,225.756,349.901,225.756z"/>
		<g>
			<polygon style="fill:#438ECA;" points="213.866,254.234 196.377,251.139 178.888,254.234 178.888,212.076 213.866,212.076 			"/>
			<path style="fill:#6BB3EA;" d="M190.661,221.074c-0.275,0.157-0.552,0.326-0.833,0.506c-2.482,1.6-3.919,4.414-4.212,7.331
				c-0.327,3.253,0.719,5.623,2.645,8.173c2.251,2.979,6.207,4.169,9.857,3.499c2.963-0.544,6.722-2.432,8.647-4.81
				c1.805-2.23,1.974-6.287,0.999-8.921c-1.443-3.897-4.514-6.607-8.61-7.239C195.917,219.113,193.388,219.52,190.661,221.074z"/>
			<path style="opacity:0.2;fill:#233766;" d="M193.661,225.37c-0.144,0.082-0.289,0.17-0.436,0.265
				c-1.299,0.837-2.051,2.31-2.205,3.837c-0.171,1.703,0.376,2.943,1.384,4.278c1.178,1.559,3.248,2.182,5.159,1.831
				c1.551-0.285,3.518-1.273,4.526-2.518c0.945-1.167,1.033-3.291,0.523-4.669c-0.755-2.04-2.363-3.458-4.506-3.789
				C196.412,224.344,195.088,224.557,193.661,225.37z"/>
		</g>
		<path style="opacity:0.6;fill:#FFD299;" d="M383.349,231.721c0,4.365-0.975,8.493-2.733,12.189l-142.53-40.729h116.722
			C370.57,203.181,383.349,215.96,383.349,231.721z"/>
	</g>
	<g>
		<path style="fill:#DA564C;" d="M424.6,314.211v5.987c0,0.776-0.63,1.406-1.406,1.406H138.792c-0.777,0-1.406-0.63-1.406-1.406
			v-5.987c0-0.776,0.629-1.406,1.406-1.406h284.401C423.97,312.805,424.6,313.435,424.6,314.211z"/>
		<path style="fill:#DA564C;" d="M424.6,355.02v5.987c0,0.777-0.63,1.406-1.406,1.406H138.792c-0.777,0-1.406-0.629-1.406-1.406
			v-5.987c0-0.776,0.629-1.406,1.406-1.406h284.401C423.97,353.614,424.6,354.243,424.6,355.02z"/>
		<path style="fill:#B33941;" d="M424.6,320.198L424.6,320.198c0,0.776-0.63,1.406-1.406,1.406H138.792
			c-0.777,0-1.406-0.63-1.406-1.406l0,0c0-0.776,0.629-1.406,1.406-1.406h284.401C423.97,318.792,424.6,319.422,424.6,320.198z"/>
		<path style="fill:#B33941;" d="M137.387,355.02c0-0.776,0.629-1.406,1.406-1.406h284.401c0.776,0,1.406,0.63,1.406,1.406l0,0
			c0,0.777-0.63,1.406-1.406,1.406H138.792C138.016,356.426,137.387,355.796,137.387,355.02L137.387,355.02z"/>
		<g>
			<rect x="142.358" y="321.609" style="fill:#FFFFFF;" width="277.262" height="31.999"/>
		</g>
		<rect x="142.358" y="326.703" style="fill:#FFD299;" width="277.263" height="3.415"/>
		<rect x="142.358" y="335.901" style="fill:#FFD299;" width="277.263" height="3.415"/>
		<rect x="142.358" y="345.099" style="fill:#FFD299;" width="277.263" height="3.415"/>
	</g>
	<g>
		<rect x="63.769" y="274.675" style="fill:#77C267;" width="322.814" height="38.13"/>
		<rect x="77.148" y="274.672" style="fill:#233766;" width="22.624" height="38.133"/>
		<rect x="81.475" y="274.672" style="fill:#FFD299;" width="4.653" height="37.969"/>
		<rect x="122.834" y="274.672" style="fill:#233766;" width="4.653" height="37.969"/>
		<rect x="164.193" y="274.672" style="fill:#233766;" width="4.653" height="37.969"/>
		<g>
			<path style="fill:#46846B;" d="M106.359,279.293c-1.211,1.065-1.897,2.637-1.357,4.297c0.516,1.587,2.126,2.243,3.667,2.49
				c2.51,0.401,5.208-1.769,4.801-4.435c-0.341-2.238-3.1-4.22-5.336-3.404C107.483,278.479,106.873,278.84,106.359,279.293z"/>
			<path style="fill:#46846B;" d="M106.359,290.859c-1.211,1.065-1.897,2.637-1.357,4.297c0.516,1.587,2.126,2.243,3.667,2.49
				c2.51,0.401,5.208-1.769,4.801-4.435c-0.341-2.238-3.1-4.22-5.336-3.404C107.483,290.045,106.873,290.406,106.359,290.859z"/>
			<path style="fill:#46846B;" d="M106.359,302.425c-1.211,1.065-1.897,2.637-1.357,4.297c0.516,1.586,2.126,2.243,3.667,2.49
				c2.51,0.401,5.208-1.769,4.801-4.435c-0.341-2.238-3.1-4.22-5.336-3.404C107.483,301.611,106.873,301.972,106.359,302.425z"/>
		</g>
		<g>
			<path style="fill:#46846B;" d="M374.098,279.293c-1.211,1.065-1.897,2.637-1.357,4.297c0.516,1.587,2.126,2.243,3.667,2.49
				c2.51,0.401,5.208-1.769,4.801-4.435c-0.341-2.238-3.1-4.22-5.336-3.404C375.222,278.479,374.613,278.84,374.098,279.293z"/>
			<path style="fill:#46846B;" d="M374.098,290.859c-1.211,1.065-1.897,2.637-1.357,4.297c0.516,1.587,2.126,2.243,3.667,2.49
				c2.51,0.401,5.208-1.769,4.801-4.435c-0.341-2.238-3.1-4.22-5.336-3.404C375.222,290.045,374.613,290.406,374.098,290.859z"/>
			<path style="fill:#46846B;" d="M374.098,302.425c-1.211,1.065-1.897,2.637-1.357,4.297c0.516,1.586,2.126,2.243,3.667,2.49
				c2.51,0.401,5.208-1.769,4.801-4.435c-0.341-2.238-3.1-4.22-5.336-3.404C375.222,301.611,374.613,301.972,374.098,302.425z"/>
		</g>
		<path style="fill:#233766;" d="M358.776,282.091H185.152c0,4.255-3.45,7.705-7.705,7.705v7.887c4.255,0,7.705,3.45,7.705,7.705
			h173.624c0-4.255,3.45-7.705,7.705-7.705v-7.887C362.225,289.796,358.776,286.346,358.776,282.091z"/>
		<path style="fill:none;stroke:#46846B;stroke-linecap:round;stroke-linejoin:round;stroke-miterlimit:10;" d="M192.529,287.483
			c0.085,2.908-0.418,5.906-0.565,8.822c-0.101,2.009-0.504,3.667,1.916,4.101c8.878,1.592,19.213,0.38,28.18-0.067
			c12.789-0.637,25.791-1.19,38.611-0.839c19.418,0.532,38.835,0.23,58.26,0.726c7.125,0.182,14.227-0.107,21.335-0.273
			c2.342-0.055,4.625-0.144,6.948,0.006c1.577,0.101,3.309,0.3,4.78-0.342c2.607-1.139,2.053-4.881,1.489-6.956
			c-0.533-1.962-0.64-3.951-1.1-5.908c-3.3-0.54-7.16-0.674-10.52-0.635c-8.471,0.098-16.917,0.543-25.373,0.992
			c-16.893,0.896-33.728,0.171-50.626-0.262c-14.767-0.379-29.519,1.136-44.254,0.646c-5.302-0.177-10.522-0.782-15.842-0.437
			C201.815,287.314,197.828,287.742,192.529,287.483z"/>
	</g>
	<g>
		<g>
			<path style="fill:#233766;" d="M390.277,392.88c-4.49-4.479-10.692-7.257-17.541-7.257h-92.049
				c6.849,0,13.051,2.778,17.541,7.257c4.479,4.49,7.257,10.693,7.257,17.541c0,13.697-11.101,24.809-24.798,24.809h92.049
				c13.697,0,24.798-11.112,24.798-24.809C397.534,403.573,394.756,397.37,390.277,392.88z"/>
			<path style="fill:#41527B;" d="M305.482,410.814c0.108-7.004-2.69-13.358-7.254-17.934c-4.49-4.479-10.692-7.257-17.541-7.257
				H112.72c-1.325,0-2.4,1.074-2.4,2.4l0,0c0,1.325,1.074,2.4,2.4,2.4h165.576c10.758,0,19.479,8.721,19.479,19.479v0
				c0,10.758-8.721,19.479-19.479,19.479H112.72c-1.325,0-2.4,1.074-2.4,2.4v1.051c0,1.325,1.074,2.4,2.4,2.4h167.392
				C293.755,435.231,305.271,424.455,305.482,410.814z"/>
			<path style="fill:#FFD299;" d="M297.775,409.902L297.775,409.902c0-10.758-8.721-19.479-19.479-19.479H117.5v38.958h160.796
				C289.054,429.381,297.775,420.659,297.775,409.902z"/>
		</g>
		<path style="opacity:0.2;fill:#233766;" d="M372.16,420.215h-45.357c0-5.02-4.069-9.089-9.089-9.089v-2.434
			c5.02,0,9.089-4.069,9.089-9.089h45.357c0,5.02,4.069,9.089,9.09,9.089v2.434C376.23,411.126,372.16,415.195,372.16,420.215z"/>
		<g>
			<g>
				<path style="fill:#6BB3EA;" d="M348.002,408.204c-0.648-0.736-1.603-1.153-2.613-0.825c-0.965,0.314-1.364,1.293-1.514,2.229
					c-0.244,1.526,1.075,3.166,2.696,2.919c1.361-0.207,2.566-1.884,2.07-3.244C348.497,408.888,348.277,408.517,348.002,408.204z"
					/>
				<path style="fill:#6BB3EA;" d="M340.97,408.204c-0.648-0.736-1.603-1.153-2.613-0.825c-0.965,0.314-1.364,1.293-1.514,2.229
					c-0.244,1.526,1.075,3.166,2.696,2.919c1.361-0.207,2.566-1.884,2.069-3.244C341.465,408.888,341.245,408.517,340.97,408.204z"
					/>
				<path style="fill:#6BB3EA;" d="M333.938,408.204c-0.648-0.736-1.603-1.153-2.613-0.825c-0.965,0.314-1.364,1.293-1.514,2.229
					c-0.244,1.526,1.075,3.166,2.696,2.919c1.361-0.207,2.566-1.884,2.069-3.244C334.433,408.888,334.213,408.517,333.938,408.204z"
					/>
			</g>
			<g>
				<path style="fill:#6BB3EA;" d="M368.933,408.204c-0.648-0.736-1.603-1.153-2.613-0.825c-0.965,0.314-1.364,1.293-1.514,2.229
					c-0.244,1.526,1.075,3.166,2.696,2.919c1.361-0.207,2.566-1.884,2.069-3.244C369.428,408.888,369.208,408.517,368.933,408.204z"
					/>
				<path style="fill:#6BB3EA;" d="M361.901,408.204c-0.648-0.736-1.603-1.153-2.613-0.825c-0.965,0.314-1.364,1.293-1.514,2.229
					c-0.244,1.526,1.075,3.166,2.696,2.919c1.361-0.207,2.566-1.884,2.069-3.244C362.396,408.888,362.176,408.517,361.901,408.204z"
					/>
				<path style="fill:#6BB3EA;" d="M354.869,408.204c-0.648-0.736-1.603-1.153-2.613-0.825c-0.965,0.314-1.364,1.293-1.514,2.229
					c-0.244,1.526,1.075,3.166,2.696,2.919c1.361-0.207,2.566-1.884,2.069-3.244C355.364,408.888,355.144,408.517,354.869,408.204z"
					/>
			</g>
		</g>
		<path style="opacity:0.6;fill:#FFD299;" d="M278.692,400.736H117.5v-4.525h161.192c1.102,0,1.995,0.893,1.995,1.995v0.534
			C280.687,399.843,279.794,400.736,278.692,400.736z"/>
		<path style="opacity:0.6;fill:#FFD299;" d="M278.692,412.451H117.5v-4.525h161.192c1.102,0,1.995,0.893,1.995,1.995v0.534
			C280.687,411.557,279.794,412.451,278.692,412.451z"/>
		<path style="opacity:0.6;fill:#FFD299;" d="M278.692,424.165H117.5v-4.525h161.192c1.102,0,1.995,0.893,1.995,1.995v0.534
			C280.687,423.272,279.794,424.165,278.692,424.165z"/>
	</g>
	<g>
		<g>
			<rect x="92.519" y="362.41" style="fill:#6BB3EA;" width="322.82" height="23.21"/>
			<rect x="102.537" y="362.413" style="fill:#438ECA;" width="20.298" height="23.207"/>
			<rect x="134.844" y="362.412" style="fill:#233766;" width="14.066" height="23.208"/>
			<rect x="138.953" y="362.412" style="fill:#438ECA;" width="5.847" height="23.208"/>
			<rect x="390.5" y="362.412" style="fill:#233766;" width="14.066" height="23.208"/>
			<rect x="394.61" y="362.412" style="fill:#438ECA;" width="5.847" height="23.208"/>
			<path style="fill:#438ECA;" d="M220.639,362.41c-10.77,4.18-22.87,5.65-27.58,18.48c-0.6,1.63-1.01,3.21-1.24,4.73h-34.84
				c1.13-3.06,2.83-5.87,5.33-8.13c7.83-7.07,19.31-8.76,28.93-11.96c2.83-0.94,5.63-1.97,8.37-3.12H220.639z"/>
			<path style="fill:#438ECA;" d="M369.889,385.62h-121.34c-0.55-1.75-1-3.52-1.19-5.31c-0.67-6.26,0.87-12.57,4.06-17.9h24.66
				c-10.49,15.43,21.46,13.92,27.8,13.35C325.859,373.76,352.249,369.47,369.889,385.62z"/>
		</g>
		<path style="fill:#233766;" d="M383.933,366.098c-0.131-0.313,0.149-1.918,0.732-1.426c0.256,0.216,0.353,1.058,0.383,1.388
			c0.282-0.05,1.368-0.165,1.369,0.208c0.001,0.372-0.711,0.677-0.925,0.88c0.152,0.208,0.69,1.452,0.346,1.545
			c-0.256,0.07-0.687-0.468-0.83-0.608c-0.188-0.183-0.356-0.341-0.592-0.461c0.007,0.004-0.638,0.735-0.707,0.784
			c-0.107,0.076-0.492,0.277-0.627,0.214c-0.377-0.176,0.291-1.373,0.418-1.601c-0.271-0.074-1.272-0.523-0.948-0.93
			C382.773,365.813,383.693,365.884,383.933,366.098z"/>
		<path style="fill:#233766;" d="M384.399,379.101c0.1-0.325,1.34-1.38,1.474-0.629c0.059,0.329-0.405,1.04-0.592,1.312
			c0.249,0.141,1.158,0.747,0.92,1.035s-0.98,0.066-1.274,0.085c-0.016,0.257-0.397,1.557-0.721,1.409
			c-0.242-0.11-0.229-0.799-0.25-0.998c-0.027-0.26-0.056-0.49-0.161-0.733c0.003,0.007-0.96,0.158-1.045,0.152
			c-0.131-0.01-0.556-0.101-0.619-0.236c-0.178-0.376,1.102-0.87,1.345-0.964c-0.161-0.23-0.645-1.215-0.134-1.321
			C383.689,378.14,384.351,378.782,384.399,379.101z"/>
		<path style="fill:#233766;" d="M383.855,373.49c-0.288,0.181-1.916,0.168-1.526-0.487c0.171-0.288,0.986-0.522,1.306-0.606
			c-0.096-0.27-0.387-1.322-0.02-1.384c0.367-0.062,0.785,0.59,1.02,0.768c0.18-0.184,1.318-0.919,1.467-0.595
			c0.111,0.241-0.349,0.754-0.463,0.919c-0.149,0.215-0.278,0.407-0.357,0.66c0.002-0.007,0.83,0.508,0.89,0.568
			c0.093,0.093,0.354,0.44,0.314,0.583c-0.112,0.401-1.402-0.062-1.648-0.15c-0.028,0.279-0.306,1.341-0.762,1.088
			C383.764,374.681,383.682,373.763,383.855,373.49z"/>
		<path style="fill:#233766;" d="M236.099,385.62h-33c1.59-6.63,9.04-11.71,15.28-12.83c6.6-1.19,12.78,1.31,15.95,7.38
			C235.239,381.91,235.729,383.75,236.099,385.62z"/>
		<path style="fill:#233766;" d="M332.929,362.41c-8.67,4.81-18.06,7.87-26.49,6.89c-5.95-0.69-10.65-2.91-13.15-6.89H332.929z"/>
	</g>
	<g>
		<rect x="91.936" y="112.317" style="fill:#DA564C;" width="331.139" height="77.793"/>
		<rect x="112.772" y="112.317" style="fill:#EE9347;" width="55.254" height="77.793"/>
		<rect x="390.903" y="112.317" style="fill:#EE9347;" width="17.951" height="77.793"/>
		<rect x="119.008" y="112.317" style="fill:#F9B050;" width="6.159" height="77.793"/>
		<rect x="131.182" y="112.317" style="fill:#F9B050;" width="6.159" height="77.793"/>
		<rect x="143.357" y="112.317" style="fill:#F9B050;" width="6.159" height="77.793"/>
		<rect x="155.531" y="112.317" style="fill:#F9B050;" width="6.159" height="77.793"/>
		<rect x="396.505" y="112.317" style="fill:#F9B050;" width="6.159" height="77.793"/>
		<path style="fill:#EE9347;" d="M365.24,119.462H197.631c0,8.277-6.71,14.987-14.987,14.987v33.53
			c8.277,0,14.987,6.71,14.987,14.987H365.24c0-8.277,6.71-14.987,14.987-14.987v-33.53
			C371.95,134.449,365.24,127.739,365.24,119.462z"/>
		<g>
			<path style="fill:#FFE0AA;" d="M311.984,156.062c-23.94,34.65-57.01,2.28-57.01,2.28s4.87-9.52,14.84-14.19
				c7.55-3.54,18.04-4.3,31.55,3.98C304.714,150.192,308.254,152.802,311.984,156.062z"/>
			<path style="fill:#233766;" d="M301.364,148.132c-0.91,7.92-7.63,14.08-15.8,14.08c-8.78,0-15.9-7.12-15.9-15.9
				c0-0.73,0.05-1.45,0.15-2.16C277.364,140.612,287.854,139.852,301.364,148.132z"/>
			<path style="fill:none;stroke:#233766;stroke-width:2;stroke-linecap:round;stroke-miterlimit:10;" d="M251.687,147.259
				c0,0,29.256-27.872,61.184,1.774"/>
			
				<line style="fill:none;stroke:#233766;stroke-width:2;stroke-linecap:round;stroke-miterlimit:10;" x1="257.591" y1="142.828" x2="254.974" y2="137.21"/>
			
				<line style="fill:none;stroke:#233766;stroke-width:2;stroke-linecap:round;stroke-miterlimit:10;" x1="266.375" y1="138.361" x2="263.92" y2="130.636"/>
			
				<line style="fill:none;stroke:#233766;stroke-width:2;stroke-linecap:round;stroke-miterlimit:10;" x1="275.659" y1="135.381" x2="274.876" y2="128.601"/>
			
				<line style="fill:none;stroke:#233766;stroke-width:2;stroke-linecap:round;stroke-miterlimit:10;" x1="285.514" y1="135.381" x2="287.085" y2="128.601"/>
			
				<line style="fill:none;stroke:#233766;stroke-width:2;stroke-linecap:round;stroke-miterlimit:10;" x1="294.285" y1="137.21" x2="297.729" y2="130.636"/>
			
				<line style="fill:none;stroke:#233766;stroke-width:2;stroke-linecap:round;stroke-miterlimit:10;" x1="302.138" y1="141.038" x2="306.807" y2="136.271"/>
			
				<line style="fill:none;stroke:#233766;stroke-width:2;stroke-linecap:round;stroke-miterlimit:10;" x1="308.881" y1="145.613" x2="314.164" y2="141.038"/>
		</g>
		<g>
			<g>
				<path style="fill:#F9B050;" d="M209.237,148.345c0.97-0.853,1.52-2.113,1.087-3.443c-0.413-1.271-1.703-1.797-2.938-1.995
					c-2.011-0.321-4.172,1.417-3.847,3.553c0.273,1.793,2.483,3.381,4.275,2.727C208.337,148.997,208.825,148.708,209.237,148.345z"
					/>
				<path style="fill:#F9B050;" d="M209.237,139.079c0.97-0.853,1.52-2.113,1.087-3.443c-0.413-1.271-1.703-1.797-2.938-1.995
					c-2.011-0.321-4.172,1.417-3.847,3.553c0.273,1.793,2.483,3.381,4.275,2.727C208.337,139.731,208.825,139.442,209.237,139.079z"
					/>
				<path style="fill:#F9B050;" d="M209.237,129.813c0.97-0.853,1.52-2.113,1.087-3.443c-0.413-1.271-1.703-1.797-2.938-1.995
					c-2.011-0.321-4.172,1.417-3.847,3.553c0.273,1.793,2.483,3.381,4.275,2.727C208.337,130.465,208.825,130.175,209.237,129.813z"
					/>
			</g>
			<g>
				<path style="fill:#F9B050;" d="M209.237,175.927c0.97-0.853,1.52-2.113,1.087-3.443c-0.413-1.271-1.703-1.797-2.938-1.995
					c-2.011-0.321-4.172,1.417-3.847,3.553c0.273,1.793,2.483,3.381,4.275,2.727C208.337,176.579,208.825,176.29,209.237,175.927z"
					/>
				<path style="fill:#F9B050;" d="M209.237,166.661c0.97-0.853,1.52-2.113,1.087-3.443c-0.413-1.271-1.703-1.797-2.938-1.995
					c-2.011-0.321-4.172,1.417-3.847,3.553c0.273,1.793,2.483,3.381,4.275,2.727C208.337,167.313,208.825,167.023,209.237,166.661z"
					/>
				<path style="fill:#F9B050;" d="M209.237,157.394c0.97-0.853,1.52-2.113,1.087-3.443c-0.413-1.271-1.703-1.797-2.938-1.995
					c-2.011-0.321-4.172,1.417-3.847,3.553c0.273,1.793,2.483,3.381,4.275,2.727C208.337,158.046,208.825,157.757,209.237,157.394z"
					/>
			</g>
		</g>
		<g>
			<g>
				<path style="fill:#F9B050;" d="M359.284,148.345c0.97-0.853,1.52-2.113,1.087-3.443c-0.413-1.271-1.703-1.797-2.938-1.995
					c-2.011-0.321-4.172,1.417-3.847,3.553c0.273,1.793,2.483,3.381,4.275,2.727C358.383,148.997,358.872,148.708,359.284,148.345z"
					/>
				<path style="fill:#F9B050;" d="M359.284,139.079c0.97-0.853,1.52-2.113,1.087-3.443c-0.413-1.271-1.703-1.797-2.938-1.995
					c-2.011-0.321-4.172,1.417-3.847,3.553c0.273,1.793,2.483,3.381,4.275,2.727C358.383,139.731,358.872,139.442,359.284,139.079z"
					/>
				<path style="fill:#F9B050;" d="M359.284,129.813c0.97-0.853,1.52-2.113,1.087-3.443c-0.413-1.271-1.703-1.797-2.938-1.995
					c-2.011-0.321-4.172,1.417-3.847,3.553c0.273,1.793,2.483,3.381,4.275,2.727C358.383,130.465,358.872,130.175,359.284,129.813z"
					/>
			</g>
			<g>
				<path style="fill:#F9B050;" d="M359.284,175.927c0.97-0.853,1.52-2.113,1.087-3.443c-0.413-1.271-1.703-1.797-2.938-1.995
					c-2.011-0.321-4.172,1.417-3.847,3.553c0.273,1.793,2.483,3.381,4.275,2.727C358.383,176.579,358.872,176.29,359.284,175.927z"
					/>
				<path style="fill:#F9B050;" d="M359.284,166.661c0.97-0.853,1.52-2.113,1.087-3.443c-0.413-1.271-1.703-1.797-2.938-1.995
					c-2.011-0.321-4.172,1.417-3.847,3.553c0.273,1.793,2.483,3.381,4.275,2.727C358.383,167.313,358.872,167.023,359.284,166.661z"
					/>
				<path style="fill:#F9B050;" d="M359.284,157.394c0.97-0.853,1.52-2.113,1.087-3.443c-0.413-1.271-1.703-1.797-2.938-1.995
					c-2.011-0.321-4.172,1.417-3.847,3.553c0.273,1.793,2.483,3.381,4.275,2.727C358.383,158.046,358.872,157.757,359.284,157.394z"
					/>
			</g>
		</g>
		<rect x="217.777" y="119.462" style="fill:#B33941;" width="3.776" height="63.503"/>
		<rect x="226.733" y="119.462" style="fill:#B33941;" width="3.776" height="63.503"/>
		<rect x="332.999" y="119.462" style="fill:#B33941;" width="3.776" height="63.503"/>
		<rect x="341.954" y="119.462" style="fill:#B33941;" width="3.776" height="63.503"/>
	</g>
	<g>
		<path style="fill:#FFFFFF;" d="M60.765,334.44c0,3.415-2.768,6.183-6.183,6.183c3.415,0,6.183,2.768,6.183,6.183
			c0-3.415,2.768-6.183,6.183-6.183C63.533,340.623,60.765,337.855,60.765,334.44z"/>
		<path style="fill:#FFFFFF;" d="M452.768,29.458c0,3.415-2.768,6.183-6.183,6.183c3.415,0,6.183,2.769,6.183,6.183
			c0-3.415,2.768-6.183,6.183-6.183C455.536,35.641,452.768,32.873,452.768,29.458z"/>
		<path style="fill:#FFFFFF;" d="M468.225,107.445c0,3.415-2.768,6.183-6.183,6.183c3.415,0,6.183,2.768,6.183,6.183
			c0-3.415,2.768-6.183,6.183-6.183C470.994,113.628,468.225,110.86,468.225,107.445z"/>
		<path style="fill:#FFFFFF;" d="M50.025,25.918c0,3.415-2.768,6.183-6.183,6.183c3.415,0,6.183,2.768,6.183,6.183
			c0-3.415,2.769-6.183,6.183-6.183C52.794,32.102,50.025,29.333,50.025,25.918z"/>
		<path style="fill:#FFFFFF;" d="M460.612,326.168c0,5.49-4.45,9.94-9.94,9.94c5.49,0,9.94,4.451,9.94,9.94
			c0-5.49,4.451-9.94,9.94-9.94C465.063,336.108,460.612,331.658,460.612,326.168z"/>
		<path style="fill:#FFFFFF;" d="M265.147,22.161c0,5.49-4.45,9.94-9.94,9.94c5.49,0,9.94,4.451,9.94,9.94
			c0-5.49,4.451-9.94,9.94-9.94C269.598,32.102,265.147,27.651,265.147,22.161z"/>
		<path style="fill:#FFFFFF;" d="M36.849,131.991c0,1.708-1.384,3.092-3.092,3.092c1.708,0,3.092,1.384,3.092,3.092
			c0-1.707,1.384-3.092,3.092-3.092C38.233,135.083,36.849,133.699,36.849,131.991z"/>
		<path style="fill:#FFFFFF;" d="M410.074,50.959c0,1.708-1.384,3.092-3.092,3.092c1.708,0,3.092,1.384,3.092,3.092
			c0-1.708,1.384-3.092,3.092-3.092C411.458,54.05,410.074,52.666,410.074,50.959z"/>
		<path style="fill:#FFFFFF;" d="M81.415,77.687c0,1.707-1.384,3.092-3.092,3.092c1.708,0,3.092,1.384,3.092,3.092
			c0-1.708,1.384-3.092,3.092-3.092C82.799,80.778,81.415,79.394,81.415,77.687z"/>
	</g>
	<g>
		<rect x="117.5" y="73.015" style="fill:#233766;" width="266.953" height="39.303"/>
		<g>
			<path style="fill:#438ECA;" d="M184.48,85.061h-17.672c-1.183,0-2.141-0.959-2.141-2.141l0,0c0-1.183,0.959-2.141,2.141-2.141
				h17.672c1.183,0,2.141,0.959,2.141,2.141l0,0C186.622,84.102,185.663,85.061,184.48,85.061z"/>
			<path style="fill:#438ECA;" d="M184.48,94.807h-17.672c-1.183,0-2.141-0.959-2.141-2.141l0,0c0-1.183,0.959-2.141,2.141-2.141
				h17.672c1.183,0,2.141,0.959,2.141,2.141l0,0C186.622,93.849,185.663,94.807,184.48,94.807z"/>
			<path style="fill:#438ECA;" d="M184.48,104.554h-17.672c-1.183,0-2.141-0.959-2.141-2.141l0,0c0-1.183,0.959-2.141,2.141-2.141
				h17.672c1.183,0,2.141,0.959,2.141,2.141l0,0C186.622,103.595,185.663,104.554,184.48,104.554z"/>
		</g>
		<path style="fill:#438ECA;" d="M338.376,79.555H210.16c-3.51,0-6.355,2.845-6.355,6.355v13.513c0,3.509,2.845,6.354,6.355,6.354
			h128.216c3.51,0,6.355-2.845,6.355-6.354V85.909C344.73,82.4,341.885,79.555,338.376,79.555z"/>
		<g>
			<g>
				<path style="fill:#FFFFFF;" d="M142.695,77.449c0.443,3.183,2.968,5.708,6.151,6.151v18.132
					c-3.183,0.443-5.708,2.968-6.151,6.151h-12.924c-0.443-3.183-2.968-5.708-6.151-6.151V83.6c3.183-0.443,5.708-2.968,6.151-6.151
					H142.695 M143.626,76.449H128.84c0,3.435-2.785,6.22-6.22,6.22v19.994c3.435,0,6.22,2.785,6.22,6.22h14.786
					c0-3.435,2.785-6.22,6.22-6.22V82.669C146.411,82.669,143.626,79.884,143.626,76.449L143.626,76.449z"/>
			</g>
			<path style="fill:none;stroke:#FFFFFF;stroke-miterlimit:10;" d="M134.607,104.301c0.296,0.157,0.646,0.229,1.046,0.183
				c1.651-0.191,2.769-2.057,1.899-3.703c-0.69-1.306-1.937-1.25-2.981-0.592C133.056,101.144,133.264,103.59,134.607,104.301z"/>
			<path style="fill:none;stroke:#FFFFFF;stroke-miterlimit:10;" d="M134.607,80.975c0.296-0.157,0.646-0.229,1.046-0.183
				c1.651,0.191,2.769,2.057,1.899,3.703c-0.69,1.306-1.937,1.25-2.981,0.592C133.056,84.133,133.264,81.686,134.607,80.975z"/>
			<path style="fill:none;stroke:#FFFFFF;stroke-miterlimit:10;" d="M131.73,94.869c1.149,1.752,2.828,2.668,4.813,2.506
				c1.406-0.115,2.769-0.689,3.336-2.196c0.997-2.651-0.31-5.887-2.788-6.715c-2.107-0.704-4.49-0.273-5.567,2.037
				c-0.332,0.713-0.38,1.399-0.38,2.18C131.142,93.863,131.409,94.362,131.73,94.869z"/>
		</g>
		<g>
			<g>
				<path style="fill:#FFFFFF;" d="M371.895,77.449c0.443,3.183,2.968,5.708,6.151,6.151v18.132
					c-3.183,0.443-5.708,2.968-6.151,6.151h-12.924c-0.443-3.183-2.968-5.708-6.151-6.151V83.6c3.183-0.443,5.708-2.968,6.151-6.151
					H371.895 M372.826,76.449h-14.785c0,3.435-2.785,6.22-6.22,6.22v19.994c3.435,0,6.22,2.785,6.22,6.22h14.785
					c0-3.435,2.785-6.22,6.22-6.22V82.669C375.611,82.669,372.826,79.884,372.826,76.449L372.826,76.449z"/>
			</g>
			<path style="fill:none;stroke:#FFFFFF;stroke-miterlimit:10;" d="M363.806,104.301c0.296,0.157,0.647,0.229,1.046,0.183
				c1.651-0.191,2.769-2.057,1.899-3.703c-0.69-1.306-1.937-1.25-2.981-0.592C362.256,101.144,362.465,103.59,363.806,104.301z"/>
			<path style="fill:none;stroke:#FFFFFF;stroke-miterlimit:10;" d="M363.806,80.975c0.296-0.157,0.647-0.229,1.046-0.183
				c1.651,0.191,2.769,2.057,1.899,3.703c-0.69,1.306-1.937,1.25-2.981,0.592C362.256,84.133,362.465,81.686,363.806,80.975z"/>
			<path style="fill:none;stroke:#FFFFFF;stroke-miterlimit:10;" d="M360.93,94.869c1.149,1.752,2.828,2.668,4.813,2.506
				c1.407-0.115,2.769-0.689,3.336-2.196c0.997-2.651-0.31-5.887-2.788-6.715c-2.107-0.704-4.49-0.273-5.567,2.037
				c-0.332,0.713-0.38,1.399-0.38,2.18C360.342,93.863,360.609,94.362,360.93,94.869z"/>
		</g>
		<path style="fill:#6BB3EA;" d="M215.563,88.044c-4.945,7.602,3.299,15.338,10.953,13.876c5.523-1.055,8.83-6.081,6.489-11.516
			C230.011,83.452,219.577,80.128,215.563,88.044z"/>
		<path style="fill:#6BB3EA;" d="M249.153,88.044c-4.945,7.602,3.299,15.338,10.953,13.876c5.523-1.055,8.83-6.081,6.489-11.516
			C263.601,83.452,253.166,80.128,249.153,88.044z"/>
		<path style="fill:#6BB3EA;" d="M280.3,88.044c-4.945,7.602,3.299,15.338,10.953,13.876c5.523-1.055,8.83-6.081,6.489-11.516
			C294.747,83.452,284.313,80.128,280.3,88.044z"/>
		<path style="fill:#6BB3EA;" d="M315.662,88.044c-4.945,7.602,3.298,15.338,10.953,13.876c5.523-1.055,8.83-6.081,6.489-11.516
			C330.11,83.452,319.676,80.128,315.662,88.044z"/>
	</g>
</g>
</svg>
